<?xml version="1.0" standalone="no"?><!DOCTYPE svg PUBLIC "-//W3C//DTD SVG 1.1//EN" "http://www.w3.org/Graphics/SVG/1.1/DTD/svg11.dtd"><svg t="1498046100046" class="icon" style="" viewBox="0 0 1028 1024" version="1.1" xmlns="http://www.w3.org/2000/svg" p-id="1679" xmlns:xlink="http://www.w3.org/1999/xlink" width="200.78125" height="200"><defs><style type="text/css"></style></defs><path d="M410.521791 419.877669a117.467284 117.467284 0 0 1-18.297439-1.386514 67.518686 67.518686 0 0 1-15.501681-4.250461c-7.864489-3.273082-13.785586-8.898692-18.126966-17.195046a90.657558 90.657558 0 0 1-7.694016-22.059211c-1.079663-4.659596-2.159325-9.637409-3.023055-13.637842l-0.204568-0.90919c-0.704622-3.216258-1.386514-6.364327-2.091135-9.512395l-0.125014-0.568243-0.159108-0.568244c-0.102284-0.340946-0.340946-1.136487-0.568244-1.841109l-0.056824-0.193202c-0.181838-0.579608-0.39777-1.227406-0.579608-1.897933-0.261392-0.931919-0.511419-1.863838-0.750082-2.784393-0.329581-1.2615-0.647798-2.477541-0.943284-3.409461l-2.454811-8.273624-7.216692-4.739151a1.909298 1.909298 0 0 1-0.897825-1.409243l-0.102284-0.590974a11.285315 11.285315 0 0 1-0.250027-2.204784c0.125014-4.864164 0.284122-9.716963 0.44323-14.569762l0.125014-3.829961a2.443447 2.443447 0 0 1 1.954757-2.352528l1.136487-0.318216a44.14115 44.14115 0 0 1 5.352853-1.204676c9.887436-1.341055 20.456764-2.761663 31.162471-4.045893a330.092614 330.092614 0 0 1 39.583838-2.022947h2.773028a285.996923 285.996923 0 0 1 51.778342 4.818704c9.807882 1.807014 19.399831 4.909623 27.866658 7.648557a123.683867 123.683867 0 0 0 15.467587 4.125448 44.322988 44.322988 0 0 0 7.455354 0.738716l-20.456764 52.676167a135.423777 135.423777 0 0 1-6.716638 14.865248 88.157287 88.157287 0 0 1-20.581777 25.707333c-4.977813 4.239096-11.058017 7.35307-19.115709 9.796517a131.241505 131.241505 0 0 1-28.775848 4.977813c-3.568569 0.261392-7.080313 0.39777-10.45568 0.39777z m-21.172751-10.012449c2.272974 0.556879 4.307285 1.022838 6.409786 1.341054a113.580499 113.580499 0 0 0 16.808641 1.261501 118.467392 118.467392 0 0 0 29.957794-3.932245c8.398638-2.204785 15.035721-5.682434 20.297656-10.728436a62.984103 62.984103 0 0 0 10.842085-14.194721 109.420957 109.420957 0 0 0 12.217234-30.230551 66.461753 66.461753 0 0 0 1.852474-21.059102l-1.136487-12.899126-11.501248-6.000651c-3.864055-2.057041-7.955408-3.079879-13.387815-4.307285l-1.136487-0.272757c-10.933004-2.523001-22.491075-3.704947-38.640554-3.94361h-0.795541l-3.966339 0.204568c-3.818596 0.204568-8.569111 0.44323-13.240072 0.829635a147.947862 147.947862 0 0 0-25.752793 4.227732l-13.84241 3.727677-3.284447 13.899234a53.005748 53.005748 0 0 0-0.931919 6.102935v0.125013c-0.068189 0.625068-0.136378 1.204676-0.215933 1.79565a71.87143 71.87143 0 0 0-0.227297 15.979005 206.840612 206.840612 0 0 0 4.261826 27.366604 58.49498 58.49498 0 0 0 8.080421 19.388466 26.42332 26.42332 0 0 0 6.5348 6.818922l6.182489 4.443663h4.659596z m235.855123 9.376016a145.595334 145.595334 0 0 1-27.991672-2.54573 77.917541 77.917541 0 0 1-22.729738-7.955408 61.211183 61.211183 0 0 1-23.582103-23.377535 182.542523 182.542523 0 0 1-10.887544-21.866008l-21.763724-52.119288a58.654088 58.654088 0 0 0 16.581344-2.943501c2.841217-0.897825 5.682434-1.886568 8.341814-2.841218 2.523001-0.88646 5.136921-1.807014 7.659921-2.625284a176.314575 176.314575 0 0 1 32.583079-6.818922 296.270765 296.270765 0 0 1 37.504067-2.272973c5.421042 0 11.092112 0.125014 16.842736 0.386405h0.852365c8.966881 0.39777 18.18379 0.818271 27.423428 1.454703 11.364869 0.784176 22.661548 2.477541 35.151539 4.443664a20.240831 20.240831 0 0 1 2.000217 0.454595l0.409136 0.102284a2.113866 2.113866 0 0 1 1.818379 2.272973c0 0.761446 0.102284 1.579717 0.170473 2.375258v0.522784c0.136378 1.72746 0.261392 3.318542 0.306851 4.989177 0.079554 3.023055 0.102284 6.02338 0.102284 9.228274l-3.50038-6.364327-5.000542 17.206412-2.341163 8.19407-8.557746 29.548659 1.488798-0.841a163.176786 163.176786 0 0 1-7.193962 23.195697 52.926194 52.926194 0 0 1-7.262151 12.865031c-4.455029 5.682434-10.137463 9.296463-18.422453 11.774004a88.645977 88.645977 0 0 1-21.706899 3.409461c-2.807123 0.125014-5.591515 0.193203-8.28499 0.193203z m-11.069383-114.682891c-3.489015 0.136378-7.841759 0.295487-12.06949 0.568244a170.586681 170.586681 0 0 0-22.297873 3.03442 120.967664 120.967664 0 0 0-15.910816 4.091353l-14.660681 5.057366-1.193311 15.456222c-0.068189 0.88646-0.113649 1.807014-0.136379 2.716203-0.147743 6.102935 0.88646 11.933112 2.488907 18.831588a88.930098 88.930098 0 0 0 17.25187 36.36758 44.20934 44.20934 0 0 0 25.775523 16.274492 149.811701 149.811701 0 0 0 31.355673 3.545839h1.136487a84.565989 84.565989 0 0 0 21.593251-2.432082c6.818921-1.852474 11.489882-4.273191 15.172099-7.853124a35.049255 35.049255 0 0 0 8.159976-13.103694 113.648688 113.648688 0 0 0 6.97803-36.901729v-0.750081c0.113649-4.36411-0.056824-8.70549-0.227298-12.910491l-0.079554-2.034311c-0.056824-1.568352-0.147743-2.886677-0.272757-4.000434l-0.37504-3.284447-1.261501-3.045785c-0.136378-0.329581-0.295487-0.693257-0.454595-1.056933l-4.545947-10.228382-10.728436-2.98896c-12.501356-3.47765-25.002711-4.682326-41.015812-5.500597h-1.045568l-3.693582 0.147743zM721.907831 619.206103L575.062361 886.450993l-21.775088-63.643265 40.186176-80.360988-80.429177-80.349622-80.451906 80.349622 40.243001 80.360988-25.945996 65.177522-142.731387-268.779147S0 780.098551 0 939.365822c0 43.993407 18.18379 84.634178 62.506778 84.634178h902.938827c44.129786 0 62.734076-40.28846 62.734076-84.00911 0-149.573038-306.317309-320.784787-306.317309-320.784787m210.488735 160.892448z" fill="" p-id="1680"></path><path d="M777.675242 290.022678l-0.193202-12.55818-10.546599-7.068948c-1.28423-0.897825-2.545731-1.659271-3.807231-2.443447-21.593251-185.315551-20.138548-294.656953-236.502919-262.312537-75.883229 11.364869-158.710393-12.058126-205.863234 22.150129-59.301885 55.4151-63.484157 138.56048-47.391503 236.161974a110.693822 110.693822 0 0 0-10.694341 6.46661l-10.546599 7.068949-0.193202 12.501356c-0.545514 32.503525 3.557204 59.949683 12.387707 80.95196 8.034962 19.115709 19.865791 33.33316 35.719782 41.890906 18.854317 63.643265 45.9368 111.489363 79.826839 145.879456 36.947188 37.504067 81.372461 58.813196 131.662005 67.223199l4.545947 0.715987 4.545948-0.920554c55.687857-11.67172 100.135859-33.912769 135.54879-71.064525 32.878565-34.401458 57.392587-80.872406 75.39454-142.92459 15.251654-8.796408 26.696077-23.138873 34.390093-42.050015 8.489557-20.888629 12.376342-47.834733 11.853558-79.69046z m-57.369857 61.563494c-4.31865 10.557963-10.228382 17.501898-17.661006 20.070359l-12.262694 4.284555-3.352636 12.399072c-16.069924 59.529183-37.663175 102.715684-66.564037 132.923506-27.275685 28.514456-61.870346 46.118638-105.409158 55.937884-38.288243-7.171232-72.064633-23.866224-100.113129-52.278397-30.105537-30.594227-54.13087-75.008134-70.814498-136.003385l-3.545839-12.97868-12.990045-4.000434c-7.603097-2.272974-13.637843-9.091895-18.001952-19.638493s-7.068948-23.638927-8.171341-39.402c11.899018-1.784284 25.230009-5.171015 31.821633-0.875095 0.715987-2.272974 1.431973-4.716421 2.272974-7.580367h0.352311l0.966014-5.193745c3.591299-14.171991 7.625827-102.852063 11.239855-117.137703 1.420609-4.170907 1.932028-8.910057 4.670961-12.262694 17.422344 23.638927 149.334376 26.321036 225.899497-26.559698l-14.387924 38.640554 14.547032 2.852582 16.342682-25.98009-2.057042 18.18379 15.490316 2.034312 9.626044-29.878241c18.967966 10.819355 39.981608 25.298198 58.722277 17.422344 6.239313 14.035613 11.046652 99.476697 14.160627 115.921662l4.034528 21.150021 7.046219-0.431865 3.295812 11.023923a212.238925 212.238925 0 0 1 22.729738-1.295595c-1.068298 15.376667-3.704947 28.355348-7.875854 38.640554z" fill="" p-id="1681"></path></svg>