<?xml version="1.0" standalone="no"?><!DOCTYPE svg PUBLIC "-//W3C//DTD SVG 1.1//EN" "http://www.w3.org/Graphics/SVG/1.1/DTD/svg11.dtd"><svg t="1498046111086" class="icon" style="" viewBox="0 0 1024 1024" version="1.1" xmlns="http://www.w3.org/2000/svg" p-id="2336" xmlns:xlink="http://www.w3.org/1999/xlink" width="200" height="200"><defs><style type="text/css"></style></defs><path d="M1023.971556 984.008222c0 24.006444-24.006444 39.991778-48.012888 39.991778H48.012889C24.006444 1024 0 1008.014666 0 984.008222c0 0 0-160.023999 127.996445-216.001111 79.983556-32.027555 48.012889-7.964223 152.002888-39.991778 95.96889-39.991778 120.032221-48.012889 120.032222-48.012889l-8.021111-63.998222s-112.067998-31.970667-127.996444-135.960668c-32.027555 7.964223-48.012889-40.048665-48.012889-64.055109 0-23.949557-24.006444-103.99 24.006444-95.96889-7.964223-55.977112-16.042221-103.99-16.042221-135.960668 8.021111-40.048665-7.964223-48.012889 40.048666-88.004666 7.964223-8.021111-8.021111-48.012889 0-63.998223C271.921336 15.95689 359.982889 23.978001 375.968223 23.978001A331.65301 331.65301 0 0 1 504.021555 0.028444c191.994667 7.964223 264.014 103.99 272.03511 191.994666 0 24.006444 0 72.019333-16.042221 127.996445 40.048665-7.964223 24.006444 72.019333 24.006444 96.025777 0 23.949557-15.985334 71.962445-48.012888 63.998222-15.928446 111.954223-111.954223 135.960668-111.954224 135.960668l-7.964223 63.998222s23.949557 7.964223 119.918447 48.012889c96.025777 39.991778 72.019333 7.964223 152.002889 48.012888C1023.971556 832.005333 1023.971556 984.008222 1023.971556 984.008222z" p-id="2337"></path></svg>