<?xml version="1.0" standalone="no"?><!DOCTYPE svg PUBLIC "-//W3C//DTD SVG 1.1//EN" "http://www.w3.org/Graphics/SVG/1.1/DTD/svg11.dtd"><svg t="1498031165224" class="icon" style="" viewBox="0 0 1024 1024" version="1.1" xmlns="http://www.w3.org/2000/svg" p-id="1007" xmlns:xlink="http://www.w3.org/1999/xlink" width="200" height="200"><defs><style type="text/css"></style></defs><path d="M304.323796 399.476851c31.24867 103.290378 112.403934 183.994364 207.674669 183.994364 95.283015 0 176.448511-80.713196 207.697182-184.019946 18.811419-6.384401 34.089365-23.702818 38.158027-46.257487 4.49538-24.911341-6.016011-48.662254-24.60742-60.353516-4.882189-182.316143-102.047062-227.548279-221.247789-227.548279-19.690438 0-38.769963 1.257642-56.941817 4.138246l0 0c-30.948842 4.906748-59.238113 14.578006-83.303181 31.090058l0 0c-47.340144 32.478683-78.297172 91.416968-80.996651 192.325091-18.585269 11.691262-29.103823 35.443198-24.605373 60.353516C270.221128 375.76073 285.503167 393.09245 304.323796 399.476851L304.323796 399.476851zM294.960554 315.387772l4.302998-3.298113c3.518123-1.946326 7.819075-2.866278 13.036908-2.28811 4.690831 0.517792 4.690831 0.517792 13.533211 0.909718 0 0 32.102107-62.217978 72.407028-62.217978 40.306968 0 166.102896 25.649144 217.398115 10.994391 0 0 35.790099 49.324333 96.05868 50.313869l0 0c16.994029 3.065822 28.033445 20.760815 24.645282 39.510836-1.270945 7.041363-4.411469 13.200637-8.71856 18.004031 0.083911-0.419555 0.182148-0.837064 0.25992-1.257642-4.523009 4.325511-10.16142 7.011687-16.372883 7.011687-2.450816 0-4.772695-0.534165-7.029083-1.282201-23.104184 102.556668-100.505964 186.032788-192.487797 186.032788-82.889766 0-153.919425-67.807271-184.067018-156.25563 0.004093 0 0.014326 0 0.018419 0-0.058328-0.12689-0.102331-0.264013-0.159636-0.391926-0.148379-0.438998-0.314155-0.870833-0.459464-1.304714l-0.127913-0.132006c-2.77418-6.629994-5.024428-13.898531-6.515384-21.745235-9.261935 0.391926-18.067476-3.723808-24.357733-10.753914-0.161682-0.697894-0.843203-3.668549-0.104377-0.112564-4.231367-4.762462-7.318679-10.839872-8.576321-17.800394C285.448932 337.102308 287.367629 323.062561 294.960554 315.387772L294.960554 315.387772z" p-id="1008"></path><path d="M805.433271 755.206383c-21.894638-100.337119-64.965552-145.113884-145.111837-145.113884l-41.925836 0-53.287594 201.766105-15.52354 0-17.419724-174.747778 15.106031 0 0-27.018327-70.542566 0 0 27.018327 15.106031 0-17.419724 174.747778-15.52354 0-53.287594-201.766105-47.845657 0c-80.139122 0-130.60751 41.817366-145.111837 145.113884l-29.596032 203.502654 657.89927 0L805.433271 755.206383 805.433271 755.206383z" p-id="1009"></path></svg>